# xmcd
#
# Track frame offsets:
#	150
#	17522
#	31417
#	44089
#	55161
#	71285
#	89500
#	92563
#	112026
#	126850
#	138547
#	148257
#	161790
#	170487
#
# Disc length: 2411
#
# Revision: 1
# Processed by: cddbd v1.5.1PL0 Copyright (c) Steve Scherf et al.
# Submitted via: ExactAudioCopy v0.90b4
# Normalized: r0:DSETVAR1,TDELIM( - )
#
DISCID=ca09690e
DTITLE=Various Artist - Highwaymen - CD2
DYEAR=2000
DGENRE=Country
TTITLE0=Kris Kristofferson - Casey's Last Ride
TTITLE1=Willie Nelson - Good Hearted Woman (live)
TTITLE2=Johnny Cash - The Long Black Veil (live)
TTITLE3=Waylon Jennings - Big Mamou
TTITLE4=Willie Nelson - Angel Flying Too Close To The Ground (live)
TTITLE5=Johnny Cash - Orange Blossom Special (live)
TTITLE6=Waylon Jennings - Back In The Saddle Again
TTITLE7=Kris Kristofferson - Sugar Man
TTITLE8=Willie Nelson - The Last Letter
TTITLE9=Waylon Jennings - Burning Memories
TTITLE10=Johnny Cash - Help Me (live)
TTITLE11=Willie Nelson - Undo The Right
TTITLE12=Waylon Jennings - Love's Gonna Live Here
TTITLE13=Johnny Cash - If I Were A Carpenter (live)
EXTD=
EXTT0=
EXTT1=
EXTT2=
EXTT3=
EXTT4=
EXTT5=
EXTT6=
EXTT7=
EXTT8=
EXTT9=
EXTT10=
EXTT11=
EXTT12=
EXTT13=
PLAYORDER=
